<svg xmlns="http://www.w3.org/2000/svg" xmlns:xlink="http://www.w3.org/1999/xlink" version="1.1" baseProfile="tiny" x="0px" y="0px" width="100px" height="100px" viewBox="0 0 100 100" xml:space="preserve">
<g id="Captions">
</g>
<g id="Your_Icon">
	<path fill-rule="evenodd" fill="#000000" d="M50.003,61.176l20.715,21.206c2.078,2.145,3.429,2.166,5.546,0l4.156-4.256   c2.035-2.084,2.174-3.451,0-5.678L58.49,50l21.931-22.449c2.055-2.109,2.094-3.533,0-5.68l-4.156-4.254   c-2.156-2.207-3.488-2.105-5.546,0L50.003,38.824L29.289,17.617c-2.059-2.105-3.391-2.207-5.547,0l-4.154,4.254   c-2.096,2.146-2.059,3.57,0,5.68L41.517,50L19.588,72.448c-2.174,2.227-2.059,3.594,0,5.678l4.154,4.256   c2.098,2.166,3.449,2.145,5.547,0L50.003,61.176z"/>
</g>
</svg>