<svg xmlns="http://www.w3.org/2000/svg" xmlns:xlink="http://www.w3.org/1999/xlink" version="1.1" id="Your_Icon" x="0px" y="0px" width="100px" height="100px" viewBox="0 0 100 100" enable-background="new 0 0 100 100" xml:space="preserve">
<path d="M49.68,19.77c0.003,0.15,0.012,0.3,0.012,0.451c0,11.033-17.276,31.601-19.247,33.91l-2.319,2.719l-2.32-2.719  c-1.181-1.386-7.872-9.345-13.037-17.873V97h10.081l41.378-77.23H49.68z"/>
<polygon points="38.222,97 90,97 90,89.731 52.796,69.799 "/>
<polygon points="79.6,19.77 59.195,57.855 90,74.359 90,19.77 "/>
<path d="M28.126,52.152c0,0,18.517-21.704,18.517-31.931c0-10.227-8.29-18.517-18.517-18.517c-10.227,0-18.518,8.291-18.518,18.517  C9.608,30.448,28.126,52.152,28.126,52.152z M28.125,8.93c3.991,0,7.227,3.235,7.227,7.226c0,3.992-3.235,7.227-7.227,7.227  s-7.227-3.235-7.227-7.227C20.899,12.166,24.134,8.93,28.125,8.93z"/>
</svg>