<svg xmlns="http://www.w3.org/2000/svg" xmlns:xlink="http://www.w3.org/1999/xlink" version="1.1" id="Layer_1" x="0px" y="0px" width="100px" height="100px" viewBox="0 0 100 100" enable-background="new 0 0 100 100" xml:space="preserve">
<path d="M77.001,1.16L98,37.533l-41.999-0.001l6.4-11.094c-13.812-7.381-31.096-2.527-38.985,11.142  c-8.055,13.948-3.275,31.794,10.676,39.85c13.948,8.043,31.781,3.269,39.838-10.678c2.665-4.601,3.911-9.63,3.907-14.589h17.503  c0.008,7.937-2.004,15.97-6.251,23.335c-12.883,22.319-41.429,29.973-63.748,17.078C3.021,79.696-4.627,51.15,8.26,28.829  C20.984,6.791,48.965-0.929,71.159,11.284L77.001,1.16z"/>
</svg>